# xmcd
# Track frame offsets:
# 150
# 17377
# 35138
# 50546
# 64650
# 80258
# 97746
# 113494
# 128828
# 146821
# 164625
# 181804
# 200655
# 219699
# 236182
# 252224
# 266110
#
# Disc length: 3779 seconds
# Revision: 2
# Processed by: cddbd v1.5.2PL0 Copyright (c) Steve Scherf et al.
# Submitted via: VisiTrax 2.9.10.228 - For more info visit www.synapsa.com
#
DISCID=f30ec111
DTITLE=Various Artist - CDX 423 May 2007
DYEAR=2007
DGENRE=Country
TTITLE0=Reba McEntire - Kelly Clarkson - Because Of You
TTITLE1=Sugarland - Everyday America
TTITLE2=Dierks Bentley - Free And Easy (Down The Road I Go)
TTITLE3=Mark Wills - Days Of Thunder
TTITLE4=Amy Dalley - Let's Try Goodbye
TTITLE5=Leanne Rimes - Nothing Better To Do
TTITLE6=Ray Stevens - Ruby Falls
TTITLE7=Con Hunley - The Keys
TTITLE8=Travis Tritt - You Never Take Me Dancing
TTITLE9=Tammy Cochran - Where I Am
TTITLE10=Rissi Palmer - Country Girl
TTITLE11=Jill King - I Hope You never Find Someone New
TTITLE12=Tony "Hobo" Parks - I've Got The Feeling Too
TTITLE13=April Taylor - What It Takes
TTITLE14=Charlie Allen - Can't Take Him Out Of Me
TTITLE15=Calvin Ray - Should Have Been Singing Rock Of Ages
TTITLE16=Ronnie Kent - Kiss It
EXTD=
EXTT0=
EXTT1=
EXTT2=
EXTT3=
EXTT4=
EXTT5=
EXTT6=
EXTT7=
EXTT8=
EXTT9=
EXTT10=
EXTT11=
EXTT12=
EXTT13=
EXTT14=
EXTT15=
EXTT16=
PLAYORDER=
